<!-- Generated by IcoMoon.io -->
<svg version="1.1" xmlns="http://www.w3.org/2000/svg" width="1024" height="1024" viewBox="0 0 1024 1024">
<g id="icomoon-ignore">
</g>
<path d="M1023.17 144.77c-2.014-6.162-7.338-10.666-13.773-11.606l-61.133-8.892-27.358-55.399c-5.733-11.674-24.866-11.674-30.6 0l-27.358 55.399-61.134 8.894c-6.434 0.938-11.758 5.428-13.79 11.606-1.997 6.178-0.342 12.97 4.318 17.494l44.254 43.13-10.445 60.894c-1.091 6.4 1.536 12.869 6.776 16.693 5.309 3.858 12.237 4.334 17.989 1.296l54.683-28.758 54.683 28.758c2.491 1.314 5.24 1.962 7.954 1.962 3.531 0 7.066-1.091 10.035-3.259 5.256-3.822 7.885-10.293 6.776-16.693l-10.443-60.894 44.254-43.13c4.637-4.54 6.31-11.316 4.312-17.494zM944.357 187.232c-4.010 3.909-5.854 9.574-4.898 15.106l6.109 35.651-32.016-16.827c-2.491-1.315-5.222-1.963-7.954-1.963s-5.445 0.648-7.955 1.963l-32.018 16.827 6.11-35.651c0.955-5.531-0.888-11.179-4.899-15.106l-25.923-25.258 35.806-5.206c5.563-0.802 10.36-4.3 12.851-9.336l16.010-32.426 16.008 32.426c2.491 5.034 7.288 8.534 12.851 9.336l35.806 5.206-25.89 25.258z"></path>
<path d="M836.27 656.71h-34.134v34.134h34.134v-34.134z"></path>
<path d="M836.27 724.979h-34.134v34.134h34.134v-34.134z"></path>
<path d="M870.405 690.845h-34.134v34.134h34.134v-34.134z"></path>
<path d="M802.139 690.845h-34.134v34.134h34.134v-34.134z"></path>
<path d="M716.803 844.448h-34.134v34.133h34.134v-34.133z"></path>
<path d="M716.803 912.714h-34.134v34.136h34.134v-34.136z"></path>
<path d="M750.938 878.581h-34.134v34.136h34.134v-34.136z"></path>
<path d="M682.669 878.581h-34.134v34.136h34.134v-34.136z"></path>
<path d="M512 776.181h-34.134v34.134h34.134v-34.134z"></path>
<path d="M512 844.448h-34.134v34.133h34.134v-34.133z"></path>
<path d="M546.134 810.312h-34.134v34.134h34.134v-34.134z"></path>
<path d="M477.866 810.312h-34.134v34.134h34.134v-34.134z"></path>
<path d="M187.728 195.902h-34.134v34.134h34.134v-34.134z"></path>
<path d="M187.728 264.173h-34.134v34.134h34.134v-34.134z"></path>
<path d="M221.861 230.038h-34.134v34.134h34.134v-34.134z"></path>
<path d="M153.594 230.038h-34.134v34.134h34.134v-34.134z"></path>
<path d="M790.872 453.102c-9.198-12.408-22.698-20.394-38.024-22.546-15.394-2.184-30.584 1.859-42.874 11.264l-40.074 30.72-60.725 45.347-43.453-17.306c77.483-34.765 131.638-112.266 131.638-202.243 0-122.336-99.928-221.87-222.758-221.87s-222.755 99.534-222.755 221.87c0 44.341 13.261 85.573 35.84 120.269l-88.442-0.768c-0.051 0-0.101 0-0.154 0-0.274 0-0.494 0.136-0.75 0.155-1.69 0.067-3.346 0.41-4.965 0.989-0.411 0.155-0.837 0.24-1.229 0.427-0.203 0.085-0.41 0.101-0.614 0.203l-103.459 51.082c-0.018 0-0.034 0-0.034 0.016l-60.589 29.136c-0.666 0.29-1.348 0.682-2.014 1.126-24.15 16.075-32.377 47.65-19.148 73.454 7.048 13.722 19.046 23.827 33.792 28.451 5.684 1.773 11.486 2.645 17.254 2.645 9.268 0 18.45-2.269 26.862-6.757l44.409-23.621 72.45-37.411 43.418-0.256-174.134 173.299c-0.016 0.018-0.034 0.018-0.052 0.034l-42.839 42.667c-10.12 10.070-15.684 23.432-15.684 37.685 0 14.234 5.564 27.63 15.684 37.718 10.394 10.342 24.064 15.53 37.735 15.53 13.688 0 27.34-5.187 37.769-15.53l42.053-41.883 55.707-41.592 28.826 28.706-56.373 56.133c-0.016 0.019-0.034 0.019-0.051 0.035l-42.839 42.666c-10.12 10.070-15.684 23.432-15.684 37.685 0 14.234 5.564 27.63 15.684 37.718 10.394 10.342 24.082 15.531 37.753 15.531s27.358-5.189 37.768-15.531l111.413-110.933c0.018-0.019 0.018-0.035 0.034-0.053l32.309-32-0.12-0.12c0.203-0.205 0.493-0.275 0.699-0.494l165.31-181.062 111.072 15.803c0.802 0.12 1.605 0.171 2.406 0.171 2.066 0 4.062-0.494 5.99-1.229 0.563-0.203 1.058-0.478 1.587-0.75 0.614-0.307 1.262-0.477 1.845-0.869l102.827-68.267c0.376-0.256 0.581-0.667 0.938-0.939 0.411-0.323 0.923-0.459 1.296-0.819l40.686-38.11c21.171-19.837 24.090-52.331 6.782-75.576zM68.173 568.645c-5.546 2.97-11.844 3.566-17.868 1.656-5.974-1.861-10.82-5.941-13.654-11.453-5.154-10.035-2.168-22.256 6.86-28.859l42.037-20.226 14.37 42.002-31.744 16.88zM180.082 510.158l-49.546 25.6-14.044-41.064 64.855-32.019-1.266 47.483zM663.262 298.304c0 29.389-7.014 57.107-19.166 81.904l-133.803-60.774c-1.402-18.347-10.923-34.406-25.226-44.41l46.85-155.53c76.085 24.202 131.346 95.183 131.346 178.81zM286.016 298.304c0-103.51 84.618-187.736 188.624-187.736 8.090 0 16.008 0.682 23.842 1.672l-45.824 152.119c-0.614-0.018-1.195-0.189-1.827-0.189-33.042 0-59.922 26.795-59.922 59.736 0 32.938 26.88 59.734 59.922 59.734 22.221 0 41.421-12.27 51.781-30.227l123.598 56.152c-34.39 46.285-89.43 76.477-151.573 76.477-104.003 0-188.621-84.226-188.621-187.738zM476.619 323.906c0 14.114-11.571 25.6-25.789 25.6-14.216 0-25.787-11.486-25.787-25.6s11.571-25.602 25.787-25.602c14.218 0 25.789 11.486 25.789 25.602zM78.875 804.68c-7.56 7.493-19.798 7.477-27.34 0.018-3.636-3.635-5.632-8.429-5.632-13.533 0-5.086 1.996-9.883 5.632-13.483l30.786-30.67 27.238 27.12-30.684 30.549zM181.718 924.15c-7.56 7.491-19.814 7.51-27.358 0.018-3.636-3.635-5.632-8.43-5.632-13.534 0-5.086 1.996-9.882 5.632-13.482l30.806-30.686 27.258 27.12-30.706 30.565zM293.133 813.147c-0.018 0.016-0.034 0.016-0.053 0.034l-56.474 56.32-27.258-27.12 56.424-56.166c0 0 0 0 0-0.016 0.018-0.018 0.034-0.018 0.051-0.034 1.28-1.28 2.082-2.816 2.869-4.334 0.221-0.445 0.648-0.821 0.835-1.28 0.53-1.314 0.614-2.73 0.821-4.115 0.101-0.786 0.443-1.517 0.443-2.322 0-1.144-0.41-2.251-0.648-3.379-0.203-1.024-0.203-2.067-0.598-3.054-0.648-1.605-1.757-3.021-2.917-4.405-0.325-0.376-0.445-0.853-0.803-1.211 0 0 0 0-0.018 0-0.018-0.016-0.018-0.053-0.034-0.069l-51.422-51.2c-0.547-0.546-1.246-0.768-1.861-1.229-0.904-0.699-1.774-1.347-2.782-1.843-0.971-0.478-1.962-0.768-2.986-1.042-1.091-0.309-2.15-0.547-3.294-0.632-1.042-0.069-2.014 0.034-3.054 0.154-1.144 0.136-2.218 0.29-3.328 0.648-1.075 0.342-2.029 0.87-3.019 1.434-0.632 0.358-1.349 0.478-1.946 0.922l-56.748 42.362-28.826-28.707 76.768-76.357 139.539 137.237-29.682 29.406zM511.334 588.613c-0.494-0.067-0.957 0.12-1.45 0.086-1.246-0.069-2.44 0.018-3.686 0.222-0.973 0.17-1.894 0.357-2.816 0.682-1.093 0.376-2.083 0.888-3.091 1.502-0.955 0.579-1.826 1.194-2.661 1.962-0.411 0.358-0.904 0.53-1.28 0.938l-150.346 164.662-138.498-136.211 90.659-90.182c6.674-6.656 6.709-17.459 0.053-24.15-3.363-3.362-7.782-5.018-12.203-5v-0.016l-70.998 0.427 0.888-51.44 99.33 0.854c40.483 41.405 96.939 67.227 159.405 67.227 13.994 0 27.648-1.45 40.942-3.926 1.28 1.024 2.542 2.067 4.147 2.715l77.11 30.72 4.88 24.269 5.699 28.33-96.085-13.67zM640.65 594.314l-10.018-49.853 46.285-34.562 30.294 40.21-66.562 44.205zM760.766 503.722l-26.813 25.123-29.798-39.562 26.606-20.394c4.966-3.822 11.23-5.376 17.374-4.574 6.178 0.87 11.64 4.096 15.36 9.096 6.93 9.336 5.752 22.358-2.73 30.31z"></path>
<path d="M435.267 593.41l-68.576-68.267c-6.638-6.638-17.426-6.638-24.082 0l-68.557 68.267c-3.208 3.226-5.019 7.56-5.019 12.099 0 4.541 1.792 8.893 5.019 12.101l68.557 68.267c3.328 3.31 7.698 4.966 12.050 4.966s8.72-1.656 12.032-4.966l68.576-68.267c3.208-3.208 5.034-7.56 5.034-12.101 0-4.539-1.81-8.891-5.034-12.099zM354.659 649.696l-44.374-44.187 44.374-44.186 44.39 44.186-44.39 44.187z"></path>
<path d="M549.256 162.264l-8.243 33.146c2.27 0.563 55.605 14.456 55.605 68.763h34.134c-0.002-64.549-53.301-94.894-81.496-101.909z"></path>
<path d="M630.752 298.304h-34.134v34.136h34.134v-34.136z"></path>
</svg>
