<!-- Generated by IcoMoon.io -->
<svg version="1.1" xmlns="http://www.w3.org/2000/svg" width="1024" height="1024" viewBox="0 0 1024 1024">
<g id="icomoon-ignore">
</g>
<path d="M967.337 314.129c-2.259-51.208-10.535-86.414-22.402-116.92-12.234-32.381-31.063-61.373-55.73-85.473-24.1-24.475-53.284-43.494-85.287-55.54-30.684-11.863-65.705-20.144-116.917-22.401-51.592-2.449-67.97-3.015-198.816-3.015-130.849 0-147.227 0.566-198.626 2.824-51.208 2.258-86.414 10.546-116.912 22.401-32.389 12.237-61.38 31.065-85.48 55.732-24.475 24.1-43.486 53.282-55.54 85.288-11.863 30.69-20.144 65.704-22.401 116.913-2.449 51.591-3.015 67.969-3.015 198.818 0 130.846 0.566 147.23 2.824 198.629 2.258 51.206 10.546 86.414 22.409 116.917 12.238 32.382 31.249 61.374 55.724 85.474 24.1 24.474 53.282 43.496 85.288 55.543 30.69 11.86 65.704 20.143 116.92 22.402 51.392 2.265 67.777 2.819 198.626 2.819s147.228-0.554 198.626-2.819c51.206-2.259 86.414-10.541 116.911-22.402 64.771-25.046 115.983-76.252 141.023-141.017 11.854-30.69 20.143-65.711 22.402-116.917 2.259-51.399 2.825-67.783 2.825-198.629 0-130.849-0.193-147.227-2.452-198.627zM880.55 707.62c-2.072 47.068-9.981 72.481-16.571 89.425-16.191 41.99-49.519 75.312-91.503 91.503-16.944 6.59-42.544 14.499-89.431 16.565-50.833 2.265-66.078 2.825-194.667 2.825-128.592 0-144.028-0.56-194.677-2.825-47.068-2.066-72.485-9.975-89.43-16.565-20.894-7.722-39.912-19.956-55.349-35.96-16.003-15.631-28.241-34.455-35.963-55.35-6.589-16.944-14.495-42.55-16.562-89.431-2.265-50.833-2.824-66.084-2.824-194.676s0.559-144.029 2.824-194.671c2.067-47.068 9.973-72.485 16.562-89.429 7.722-20.901 19.96-39.913 36.154-55.356 15.621-16.003 34.448-28.241 55.349-35.956 16.944-6.59 42.552-14.496 89.429-16.57 50.834-2.258 66.087-2.824 194.67-2.824 128.785 0 144.030 0.566 194.676 2.824 47.068 2.074 72.487 9.98 89.431 16.57 20.896 7.714 39.912 19.952 55.35 35.956 15.998 15.628 28.238 34.455 35.96 55.356 6.59 16.944 14.499 42.545 16.571 89.429 2.259 50.834 2.825 66.079 2.825 194.671s-0.566 143.65-2.825 194.489z"></path>
<path d="M488.188 265.176c-136.681 0-247.577 110.89-247.577 247.578 0 136.691 110.896 247.578 247.577 247.578 136.687 0 247.58-110.887 247.58-247.578 0-136.688-110.893-247.578-247.58-247.578zM488.188 673.352c-88.671 0-160.598-71.919-160.598-160.598s71.926-160.598 160.598-160.598c88.68 0 160.601 71.919 160.601 160.598s-71.921 160.598-160.601 160.598v0z"></path>
<path d="M803.364 255.39c0 31.918-25.883 57.799-57.808 57.799-31.919 0-57.802-25.881-57.802-57.799 0-31.925 25.883-57.798 57.802-57.798 31.925 0 57.808 25.873 57.808 57.798v0z"></path>
</svg>
