<!-- Generated by IcoMoon.io -->
<svg version="1.1" xmlns="http://www.w3.org/2000/svg" width="1024" height="1024" viewBox="0 0 1024 1024">
<g id="icomoon-ignore">
</g>
<path d="M968.047 994.545v-0.036h0.241v-353.461c0-172.917-37.225-306.118-239.375-306.118-97.178 0-162.394 53.329-189.018 103.886h-2.811v-87.743h-191.669v643.436h199.579v-318.609c0-83.886 15.902-165.003 119.786-165.003 102.364 0 103.888 95.732 103.888 170.388v313.26h199.379z"></path>
<path d="M20.423 351.11h199.82v643.435h-199.82v-643.435z"></path>
<path d="M120.254 30.779c-63.89 0-115.732 51.842-115.732 115.732s51.843 116.816 115.732 116.816c63.889 0 115.732-52.926 115.732-116.816-0.040-63.89-51.882-115.732-115.732-115.732v0z"></path>
</svg>
