<!-- Generated by IcoMoon.io -->
<svg version="1.1" xmlns="http://www.w3.org/2000/svg" width="1024" height="1024" viewBox="0 0 1024 1024">
<g id="icomoon-ignore">
</g>
<path d="M968.282 213.835c-35.84 15.721-74.029 26.142-113.845 31.202 40.96-24.456 72.222-62.886 86.92-109.207-38.189 22.769-80.354 38.852-125.289 47.827-36.262-38.611-87.944-62.524-144.324-62.524-109.387 0-197.451 88.787-197.451 197.632 0 15.661 1.325 30.72 4.578 45.056-164.262-8.011-309.609-86.739-407.251-206.667-17.046 29.576-27.046 63.428-27.046 99.87 0 68.427 35.238 129.084 87.763 164.201-31.744-0.602-62.886-9.818-89.269-24.335 0 0.602 0 1.385 0 2.168 0 96.015 68.487 175.767 158.298 194.138-16.083 4.397-33.611 6.505-51.802 6.505-12.649 0-25.419-0.723-37.406-3.373 25.6 78.246 98.244 135.771 184.621 137.638-67.223 52.585-152.576 84.269-244.977 84.269-16.203 0-31.744-0.723-47.285-2.711 87.522 56.44 191.247 88.666 303.104 88.666 363.58 0 562.356-301.176 562.356-562.237 0-8.734-0.301-17.167-0.723-25.54 39.213-27.829 72.162-62.584 99.027-102.581z"></path>
</svg>
